#!OML:ASF H:\LiuWeirdWalks\Patient Classification 1\Patient 1\Session 1\male.ASF
:FULLY-SPECIFIED
:DEGREES
875
root 1.36087 18.1043 34.6053 2.38908 0.240402 3.57625
lowerback 2.09933 -2.28328 -9.12161
upperback -1.05567 -3.26644 3.33108
thorax -1.57969 -1.51391 8.74982
lowerneck -24.8115 3.46311 6.92535
upperneck 26.8039 4.78797 -8.09646
head 13.5983 1.65945 -3.48948
rclavicle 6.22196e-014 -1.98785e-014
rhumerus -37.6276 -27.4115 -66.7175
rradius 17.4339
rwrist 6.33903
rhand -17.1888 -0.275561
rfingers 7.12502
rthumb 9.05317 -30.0613
lclavicle 6.22196e-014 -1.98785e-014
lhumerus -40.0899 21.4253 84.0585
lradius 24.0139
lwrist 3.2809
lhand -8.94318 1.29984
lfingers 7.12502
lthumb 17.0011 30.5758
rfemur -10.3616 -0.234715 10.0348
rtibia 28.4306
rfoot -11.7158 -17.7555
rtoes -2.96799
lfemur -3.6686 -2.34825 -20.4111
ltibia 17.5015
lfoot -5.53179 19.0713
ltoes -8.523
876
root 1.36018 18.1052 34.6217 2.41623 0.178638 3.53613
lowerback 1.95345 -2.26986 -9.0651
upperback -1.04553 -3.23398 3.31653
thorax -1.49754 -1.50325 8.6929
lowerneck -24.9249 3.45153 6.89664
upperneck 26.8282 4.77954 -8.10233
head 13.6305 1.64945 -3.48963
rclavicle -1.54058e-015 7.15625e-015
rhumerus -37.4643 -27.0797 -67.2141
rradius 17.593
rwrist 6.14844
rhand -16.8092 -0.380515
rfingers 7.12502
rthumb 9.41949 -30.15
lclavicle -1.54058e-015 7.15625e-015
lhumerus -40.0226 21.2644 83.9326
lradius 24.2294
lwrist 3.70556
lhand -9.03288 1.10958
lfingers 7.12502
lthumb 16.9148 30.393
rfemur -10.3321 -0.184305 10.0846
rtibia 28.3958
rfoot -11.709 -17.7491
rtoes -3.03532
lfemur -3.63328 -2.38477 -20.3763
ltibia 17.5078
lfoot -5.56821 19.1952
ltoes -8.48448
877
root 1.35909 18.1064 34.6378 2.47892 0.116871 3.52742
lowerback 1.76635 -2.25446 -9.03917
upperback -1.05209 -3.1968 3.29461
thorax -1.40952 -1.48947 8.64433
lowerneck -24.9954 3.42657 6.85823
upperneck 26.8398 4.75538 -8.10147
head 13.6464 1.63346 -3.4879
rclavicle 2.96935e-014 -1.19271e-014
rhumerus -37.2882 -26.6401 -67.7272
rradius 17.7947
rwrist 5.92028
rhand -16.3479 -0.487618
rfingers 7.12502
rthumb 9.86451 -30.2365
lclavicle 2.96935e-014 -1.19271e-014
lhumerus -39.9682 21.075 83.7568
lradius 24.4277
lwrist 3.85241
lhand -8.87407 0.687526
lfingers 7.12502
lthumb 17.0677 29.9578
rfemur -10.3503 -0.146902 10.0989
rtibia 28.376
rfoot -11.709 -17.7354
rtoes -3.09612
lfemur -3.63555 -2.41138 -20.3717
ltibia 17.5049
lfoot -5.5995 19.3022
ltoes -8.45527
878
root 1.35743 18.1075 34.6534 2.55811 0.0638235 3.53405
lowerback 1.56622 -2.25312 -9.05723
upperback -1.07512 -3.17879 3.28274
thorax -1.32452 -1.48397 8.6323
lowerneck -25.0019 3.40794 6.83548
upperneck 26.8323 4.74209 -8.1172
head 13.6431 1.6229 -3.49273
rclavicle 1.41137e-014 5.56597e-015
rhumerus -37.0869 -26.0661 -68.2575
rradius 18.0199
rwrist 5.67497
rhand -15.8116 -0.588787
rfingers 7.12502
rthumb 10.3819 -30.3125
lclavicle 1.41137e-014 5.56597e-015
lhumerus -39.9351 20.889 83.5357
lradius 24.6098
lwrist 3.75621
lhand -8.48304 0.126722
lfingers 7.12502
lthumb 17.444 29.364
rfemur -10.3914 -0.11889 10.0973
rtibia 28.3665
rfoot -11.7156 -17.7231
rtoes -3.14695
lfemur -3.65669 -2.43021 -20.3792
ltibia 17.4944
lfoot -5.62693 19.388
ltoes -8.43298
879
root 1.355 18.1083 34.6683 2.63321 0.0285022 3.54086
lowerback 1.38153 -2.28012 -9.12844
upperback -1.10921 -3.2012 3.29548
thorax -1.24706 -1.49737 8.67897
lowerneck -24.9443 3.41482 6.85181
upperneck 26.8059 4.76395 -8.16824
head 13.6246 1.62817 -3.51107
rclavicle -1.58779e-014 2.3059e-014
rhumerus -36.8437 -25.3412 -68.8089
rradius 18.2511
rwrist 5.42971
rhand -15.213 -0.677254
rfingers 7.12502
rthumb 10.9593 -30.3712
lclavicle -1.58779e-014 2.3059e-014
lhumerus -39.923 20.7413 83.2699
lradius 24.7773
lwrist 3.48072
lhand -7.91661 -0.498248
lfingers 7.12502
lthumb 17.9891 28.6898
rfemur -10.4275 -0.096877 10.0983
rtibia 28.3606
rfoot -11.7273 -17.7209
rtoes -3.18647
lfemur -3.67631 -2.44605 -20.382
ltibia 17.4792
lfoot -5.65262 19.4508
ltoes -8.41509
880
root 1.3517 18.1086 34.6823 2.68077 0.019551 3.53302
lowerback 1.24326 -2.34866 -9.259
upperback -1.14539 -3.28406 3.34581
thorax -1.1795 -1.53997 8.80296
lowerneck -24.8335 3.46696 6.93057
upperneck 26.764 4.84514 -8.27139
head 13.5981 1.6597 -3.54927
rclavicle 4.22417e-016 -1.35174e-014
rhumerus -36.5366 -24.4332 -69.3991
rradius 18.4783
rwrist 5.17778
rhand -14.5719 -0.758711
rfingers 7.12502
rthumb 11.5776 -30.4189
lclavicle 4.22417e-016 -1.35174e-014
lhumerus -39.9289 20.6715 82.9563
lradius 24.9317
lwrist 3.09486
lhand -7.24712 -1.13692
lfingers 7.12502
lthumb 18.6331 27.9907
rfemur -10.4271 -0.0793182 10.1196
rtibia 28.351
rfoot -11.7435 -17.7347
rtoes -3.21507
lfemur -3.67093 -2.46357 -20.3647
ltibia 17.4627
lfoot -5.67886 19.4899
ltoes -8.40187
881
root 1.34779 18.1084 34.6956 2.69275 0.0369796 3.50966
lowerback 1.15402 -2.44716 -9.42326
upperback -1.17182 -3.41137 3.42223
thorax -1.11554 -1.60492 8.97657
lowerneck -24.7138 3.55398 7.05604
upperneck 26.7255 4.96962 -8.40785
head 13.5784 1.71057 -3.60088
rclavicle -2.50966e-015 -1.59028e-014
rhumerus -36.1684 -23.3709 -70.0278
rradius 18.7052
rwrist 4.89815
rhand -13.9111 -0.847517
rfingers 7.12502
rthumb 12.2148 -30.4708
lclavicle -2.50966e-015 -1.59028e-014
lhumerus -39.9217 20.6519 82.6112
lradius 25.0642
lwrist 2.65138
lhand -6.5384 -1.75848
lfingers 7.12502
lthumb 19.3147 27.3023
rfemur -10.3786 -0.0699438 10.1608
rtibia 28.3341
rfoot -11.764 -17.7599
rtoes -3.2371
lfemur -3.63044 -2.487 -20.3285
ltibia 17.4461
lfoot -5.70695 19.5118
ltoes -8.39315
882
root 1.34365 18.1075 34.7088 2.66879 0.0761356 3.47476
lowerback 1.10513 -2.56218 -9.59777
upperback -1.18078 -3.56398 3.51121
thorax -1.04777 -1.68364 9.17095
lowerneck -24.6183 3.66219 7.20787
upperneck 26.7058 5.11804 -8.55627
head 13.5756 1.77247 -3.65804
rclavicle 2.81777e-014 -2.94201e-014
rhumerus -35.751 -22.182 -70.6902
rradius 18.9402
rwrist 4.56978
rhand -13.2548 -0.954968
rfingers 7.12502
rthumb 12.8476 -30.5396
lclavicle 2.81777e-014 -2.94201e-014
lhumerus -39.8789 20.6526 82.2492
lradius 25.1691
lwrist 2.18654
lhand -5.84292 -2.34225
lfingers 7.12502
lthumb 19.9834 26.6502
rfemur -10.2809 -0.0721741 10.2157
rtibia 28.3092
rfoot -11.7892 -17.789
rtoes -3.25695
lfemur -3.55215 -2.51849 -20.2803
ltibia 17.4294
lfoot -5.73677 19.5247
ltoes -8.38788
883
root 1.33982 18.1061 34.7222 2.6185 0.128805 3.43998
lowerback 1.07494 -2.67694 -9.76091
upperback -1.17102 -3.71725 3.59523
thorax -0.970271 -1.76442 9.35349
lowerneck -24.565 3.77167 7.35888
upperneck 26.7171 5.26406 -8.69135
head 13.5944 1.83412 -3.71133
rclavicle 4.85035e-014 -3.97569e-015
rhumerus -35.3104 -20.9119 -71.3667
rradius 19.1925
rwrist 4.18744
rhand -12.6217 -1.08061
rfingers 7.12502
rthumb 13.4579 -30.6258
lclavicle 4.85035e-014 -3.97569e-015
lhumerus -39.787 20.6367 81.883
lradius 25.2409
lwrist 1.70985
lhand -5.19525 -2.87494
lfingers 7.12502
lthumb 20.6058 26.0513
rfemur -10.1463 -0.0926343 10.2682
rtibia 28.2787
rfoot -11.8194 -17.81
rtoes -3.27897
lfemur -3.44374 -2.55815 -20.2357
ltibia 17.4124
lfoot -5.767 19.5381
ltoes -8.38412
884
root 1.33666 18.1043 34.736 2.55273 0.18752 3.4108
lowerback 1.0445 -2.77951 -9.89626
upperback -1.14595 -3.85329 3.66383
thorax -0.881982 -1.83832 9.50244
lowerneck -24.5533 3.86652 7.48808
upperneck 26.7633 5.38772 -8.79591
head 13.6327 1.88696 -3.7541
rclavicle 6.68413e-015 -3.18055e-015
rhumerus -34.8703 -19.6007 -72.0343
rradius 19.4619
rwrist 3.75911
rhand -12.0282 -1.21203
rfingers 7.12502
rthumb 14.0299 -30.7185
lclavicle 6.68413e-015 -3.18055e-015
lhumerus -39.6458 20.579 81.5213
lradius 25.2812
lwrist 1.23184
lhand -4.62201 -3.34198
lfingers 7.12502
lthumb 21.1565 25.5236
rfemur -9.98919 -0.132983 10.3104
rtibia 28.2448
rfoot -11.8534 -17.8158
rtoes -3.30581
lfemur -3.31626 -2.60453 -20.2023
ltibia 17.3963
lfoot -5.79673 19.5579
ltoes -8.38037
885
root 1.33428 18.1024 34.7503 2.48528 0.246309 3.38783
lowerback 0.997368 -2.8665 -10.0001
upperback -1.11244 -3.96611 3.7157
thorax -0.783145 -1.90197 9.61348
lowerneck -24.5698 3.94072 7.58847
upperneck 26.8393 5.4824 -8.86657
head 13.6843 1.92812 -3.78481
rclavicle 8.29926e-015 1.11319e-014
rhumerus -34.4457 -18.2923 -72.6655
rradius 19.7387
rwrist 3.3215
rhand -11.4839 -1.3292
rfingers 7.12502
rthumb 14.5543 -30.7986
lclavicle 8.29926e-015 1.11319e-014
lhumerus -39.4669 20.4791 81.1645
lradius 25.2977
lwrist 0.763813
lhand -4.14576 -3.73062
lfingers 7.12502
lthumb 21.614 25.0831
rfemur -9.82783 -0.188369 10.3413
rtibia 28.2098
rfoot -11.8885 -17.8078
rtoes -3.33789
lfemur -3.1862 -2.65458 -20.1806
ltibia 17.3835
lfoot -5.82463 19.5866
ltoes -8.37639
